<svg width="659" height="212" viewBox="0 0 659 212" fill="none" xmlns="http://www.w3.org/2000/svg">
<path d="M48.437 147.942L47.1187 150.909L46.02 151.568L44.5918 148.052L48.437 147.942ZM92.7119 123.443C89.1963 124.175 85.3511 125.018 81.1763 125.97C94.8726 104.949 111.352 83.6724 130.615 62.1392C128.344 69.3169 124.975 78.6187 120.507 90.0444L115.014 103.887C112.963 109.234 111.242 113.885 109.851 117.84L101.281 120.696L92.7119 123.443ZM152.258 113.775L132.812 116.631L139.184 100.042L145.556 83.4526C148.925 74.8833 151.745 67.4858 154.016 61.2603C154.382 60.0884 153.063 59.7222 150.061 60.1616C146.984 60.6011 145.19 61.4434 144.677 62.6885C142.7 68.1816 139.88 75.6157 136.218 84.9907L133.581 91.6924C138.049 76.6045 142.626 62.9448 147.314 50.7134C147.534 50.1274 147.167 49.7612 146.215 49.6147C145.336 49.4683 144.238 49.5049 142.919 49.7246L143.469 47.8569C143.835 46.4653 142.553 46.0991 139.624 46.7583C139.624 46.4653 139.221 46.2456 138.415 46.0991C146.179 35.772 152.844 26.6167 158.41 18.6333C159.362 17.2417 158.374 16.729 155.444 17.0952C152.514 17.4614 150.646 18.1206 149.841 19.0728L135.668 36.541L121.496 54.1191C111.022 67.3027 101.867 79.168 94.0303 89.7148L105.236 74.0044C109.997 67.3394 113.696 62.0659 116.333 58.1841C124.755 45.9526 131.567 35.1494 136.767 25.7744C137.353 24.749 136.181 24.4561 133.251 24.8955C130.322 25.335 128.527 25.9575 127.868 26.7632C96.2275 62.2856 71.6914 98.394 54.2598 135.088C45.251 136.773 38.293 138.97 33.3857 141.68C31.7744 142.559 30.9321 143.694 30.8589 145.086C30.7856 146.551 31.7378 147.393 33.7153 147.613H33.8252L34.5942 151.348C34.7407 152.227 35.29 152.85 36.2422 153.216L37.4507 155.962L37.231 156.072C35.7661 156.878 34.9604 157.757 34.814 158.709C23.6812 162.957 13.7935 165.667 5.15088 166.839C2.5874 167.278 1.0127 168.56 0.426758 170.684C-0.0859375 172.808 1.1958 173.76 4.27197 173.541C15.6978 172.662 27.9658 170.245 41.0762 166.29C37.3408 176.47 34.228 186.321 31.7378 195.843C31.3716 197.088 32.6899 197.454 35.6929 196.941C38.769 196.355 40.5269 195.477 40.9663 194.305C42.5044 190.643 44.2256 186.761 46.1299 182.659C49.2061 182.073 51.0005 181.194 51.5132 180.022C54.3696 173.577 57.7388 166.656 61.6206 159.258C65.7222 157.72 70.9956 155.669 77.4409 153.106L93.1514 146.844L101.831 144.097C100.659 148.858 99.4136 154.351 98.0952 160.577L94.6895 177.166C91.833 191.448 89.3428 202.471 87.2188 210.235C86.9258 211.48 88.3174 211.846 91.3936 211.333C94.4697 210.821 96.1909 209.942 96.5571 208.697C98.7544 201.08 101.721 192.107 105.456 181.78C106.848 181.707 108.166 181.414 109.411 180.901C110.876 180.389 111.682 179.766 111.828 179.034C115.344 166.436 119.848 152.337 125.341 136.736C133.471 134.393 140.466 132.525 146.325 131.133C147.79 130.84 148.852 130.071 149.511 128.826L149.621 128.606L149.731 128.277C150.17 127.471 150.17 126.739 149.731 126.08C149.292 125.201 148.376 124.761 146.984 124.761C145.373 124.468 143.432 124.249 141.162 124.102C151.342 121.612 161.706 119.341 172.253 117.291C174.67 116.778 175.878 115.496 175.878 113.445C175.805 111.321 174.45 110.479 171.813 110.918L152.258 113.775ZM213.342 101.69C213.269 99.7124 213.085 97.9912 212.792 96.5264C212.426 94.4756 210.961 93.7432 208.398 94.3291C206.127 94.7686 204.553 95.7207 203.674 97.1855L203.344 97.625L202.905 98.2842C202.539 98.8701 202.172 99.4561 201.806 100.042C200.781 101.727 199.719 103.338 198.62 104.876C195.544 109.563 192.541 113.775 189.611 117.51C180.676 128.643 173.828 133.917 169.067 133.331C167.089 133.111 165.551 131.792 164.453 129.375C163.427 127.105 163.098 124.651 163.464 122.015C163.684 119.598 164.379 116.558 165.551 112.896L167.089 108.501L168.408 103.997L168.627 103.008C169.067 101.25 168.261 100.262 166.21 100.042C164.306 99.8223 162.548 100.262 160.937 101.36C159.619 100.994 158.264 101.031 156.872 101.47C155.334 101.983 154.382 102.825 154.016 103.997L153.027 106.854L152.038 109.93C151.306 112.273 150.683 114.361 150.17 116.192C148.852 121.172 148.156 125.494 148.083 129.156C147.863 138.824 152.001 145.196 160.498 148.272C164.526 149.737 170.019 148.711 176.977 145.196C179.541 143.951 181.921 142.522 184.118 140.911C186.096 139.52 187.304 138.458 187.744 137.725C187.231 140.435 185.913 145.635 183.789 153.326L182.58 157.72L181.921 159.808L181.372 161.785C180.566 164.642 180.017 166.619 179.724 167.718C179.504 168.816 179.833 169.622 180.712 170.135C181.518 170.647 182.58 170.867 183.898 170.794L183.349 174.419C183.129 176.47 184.301 177.496 186.865 177.496C189.428 177.569 191.259 176.763 192.358 175.079C192.578 176.836 192.834 178.338 193.127 179.583C193.64 181.707 195.251 182.439 197.961 181.78C200.598 181.048 202.136 179.766 202.575 177.935C209.46 150.25 214.514 125.823 217.736 104.656C217.883 103.484 217.517 102.642 216.638 102.129C215.832 101.617 214.733 101.47 213.342 101.69ZM285.522 158.599C286.181 157.208 286.987 155.486 287.939 153.436L290.466 147.942C292.663 143.328 294.274 139.593 295.3 136.736C298.449 128.094 298.559 121.502 295.629 116.961L295.52 116.851L295.3 116.631L295.959 115.423L296.398 114.324C296.765 113.592 296.508 113.152 295.629 113.006C294.97 112.859 293.945 112.933 292.553 113.226L293.103 112.457L293.652 111.578C294.677 110.04 293.725 109.454 290.795 109.82C287.792 110.113 285.888 110.809 285.083 111.907L280.578 117.51L276.184 123.223C272.375 128.204 269.445 131.976 267.395 134.539C260.51 143.182 254.174 150.213 248.388 155.633C247.436 149.554 248.205 141.534 250.695 131.573L252.453 125.53L253.332 122.564L254.211 119.598C255.676 114.764 256.665 111.248 257.177 109.051C257.324 108.172 256.262 107.842 253.991 108.062L254.65 106.744L255.31 105.425C255.749 104.546 254.907 104.144 252.783 104.217C250.659 104.29 248.864 104.729 247.399 105.535C246.228 105.682 245.019 105.975 243.774 106.414C242.529 106.927 241.76 107.403 241.467 107.842C237.072 114.141 233.374 120.22 230.371 126.08C226.562 133.624 223.999 140.582 222.68 146.954C219.311 163.433 224.658 175.005 238.72 181.67C239.892 182.183 241.467 182.146 243.444 181.561C245.495 180.901 246.74 180.022 247.18 178.924C247.692 177.532 248.278 176.104 248.938 174.639C251.135 173.76 253.332 172.662 255.529 171.343C261.315 170.025 267.175 166.106 273.107 159.588C273.107 160.76 273.144 161.895 273.217 162.994C273.144 165.337 273.217 167.498 273.437 169.476C273.437 170.208 274.096 170.611 275.415 170.684C277.685 174.493 281.64 176.58 287.28 176.946C287.5 176.946 288.122 176.836 289.147 176.617C290.319 176.397 291.345 176.104 292.224 175.738C294.934 174.712 295.703 173.797 294.531 172.991C289.77 169.695 286.767 164.898 285.522 158.599ZM354.736 74.7734C362.939 56.6094 369.018 41.7412 372.973 30.1689C376.269 26.7266 379.638 23.8701 383.081 21.5996C380.444 36.4678 370.996 54.1924 354.736 74.7734ZM318.151 181.231C317.199 180.499 316.394 179.18 315.734 177.276C317.639 164.458 320.751 151.128 325.073 137.286C327.417 131.792 330.383 125.384 333.972 118.06L335.4 117.071C336.938 117.51 338.293 117.474 339.465 116.961C341.223 116.229 342.541 115.606 343.42 115.093C343.054 121.978 341.369 129.559 338.366 137.835C337.268 140.911 335.839 144.573 334.082 148.821L331.774 154.314L329.357 159.808C329.138 160.32 328.808 161.089 328.369 162.115L327.819 163.653L327.27 165.191C326.171 167.974 325.183 170.281 324.304 172.112C321.74 177.825 319.689 180.865 318.151 181.231ZM390.441 11.0527C389.05 10.833 387.731 10.9795 386.486 11.4922C383.41 12.7373 380.334 14.3853 377.258 16.436L377.587 15.2275C383.154 7.39063 387.438 5.99902 390.441 11.0527ZM391.101 3.80176C389.929 3.65527 388.647 3.61865 387.255 3.69189C388.647 2.08057 388.098 0.981934 385.607 0.395996C383.19 -0.189941 381.286 -0.00683594 379.895 0.945312L379.565 1.2749C379.052 0.981934 378.356 0.798828 377.478 0.725586H377.368H376.818H376.379C374.182 0.725586 372.607 1.34814 371.655 2.59326C368.872 6.40186 365.832 10.9063 362.536 16.1064C353.674 25.7744 345.104 38.7383 336.828 54.998C334.118 60.418 330.786 67.5591 326.831 76.4214L321.997 87.0781C320.092 91.1797 318.481 94.6953 317.163 97.625C314.086 104.07 311.486 110.113 309.362 115.752C306.433 123.223 304.199 130.254 302.661 136.846C298.632 153.838 299.035 167.571 303.869 178.045L304.199 182.22V183.208C304.418 184.82 305.59 185.625 307.714 185.625C309.619 190.386 311.926 193.096 314.636 193.755C319.616 195.879 325.732 191.924 332.983 181.89C334.082 182.476 335.583 182.586 337.487 182.22C339.465 181.78 340.747 181.048 341.333 180.022C342.211 178.558 343.603 176.324 345.507 173.321L346.716 171.453L347.924 169.585L350.341 165.63C354.37 158.965 357.519 153.143 359.79 148.162C366.381 133.587 367.26 121.978 362.426 113.335C361.254 111.285 359.716 109.637 357.812 108.392C356.127 104.437 352.612 103.228 347.265 104.766C346.972 104.546 346.679 104.4 346.386 104.327C345.068 103.814 343.676 103.521 342.211 103.448C344.409 100.591 346.972 97.332 349.902 93.6699C360.668 86.2725 370.996 76.0186 380.883 62.9082C390.625 50.0176 397.18 38.0059 400.549 26.873C402.16 21.4531 402.453 16.6558 401.428 12.481C400.036 7.28076 396.594 4.3877 391.101 3.80176ZM412.414 98.2842C410.876 98.4307 409.118 98.8701 407.141 99.6025C409.411 97.7715 411.865 97.2222 414.501 97.9546L412.414 98.2842ZM412.634 103.448C414.758 104.693 415.966 107.696 416.259 112.457C416.333 114.141 416.296 116.009 416.149 118.06C416.076 118.792 416.003 119.561 415.93 120.367L415.82 121.355L415.71 122.125C414.538 131.646 409.484 141.753 400.549 152.447C395.275 158.746 390.991 160.796 387.695 158.599C387.036 154.131 387.585 149.407 389.343 144.427C390.002 146.478 390.661 148.199 391.32 149.59C391.906 150.909 393.627 151.202 396.484 150.469C399.34 149.664 400.732 148.528 400.659 147.063C400 135.711 400.366 126.189 401.757 118.499C401.831 117.986 402.014 117.254 402.307 116.302C402.6 115.35 402.929 114.324 403.295 113.226C404.321 110.442 405.419 108.172 406.591 106.414C408.349 104.803 410.107 103.704 411.865 103.118L412.634 103.448ZM397.363 169.476C393.774 170.721 391.027 168.926 389.123 164.092C394.616 163.873 399.89 161.565 404.943 157.171L402.966 160.247L401.098 163.433C399.56 166.07 398.315 168.084 397.363 169.476ZM379.125 163.982C378.686 162.884 378.247 161.712 377.807 160.467L378.906 161.456L379.125 163.982ZM428.454 143.218C431.018 137.579 432.702 131.207 433.508 124.102C434.533 115.386 433.654 108.685 430.871 103.997C429.406 96.8926 425.231 93.3037 418.347 93.2305C408.679 93.084 400.952 96.9658 395.166 104.876C394.067 105.242 393.371 105.572 393.078 105.865C386.34 111.797 383.044 119.964 383.19 130.364C380.48 130.657 378.686 131.39 377.807 132.562C376.635 132.635 375.39 132.891 374.072 133.331C372.753 133.697 371.875 134.136 371.435 134.649C370.922 135.381 370.336 136.26 369.677 137.286C369.091 137.725 368.762 138.128 368.688 138.494L368.469 139.703C365.612 145.928 365.063 152.74 366.821 160.137C367.553 170.391 371.032 177.276 377.258 180.792C380.114 182.403 384.106 182.439 389.233 180.901H390.222H391.21C398.681 180.389 405.639 176.69 412.084 169.805C416.918 164.678 421.496 157.72 425.817 148.931C426.843 147.759 427.392 146.587 427.465 145.416L428.454 143.218ZM502.502 101.69C502.429 99.7124 502.246 97.9912 501.953 96.5264C501.586 94.4756 500.122 93.7432 497.558 94.3291C495.288 94.7686 493.713 95.7207 492.834 97.1855L492.504 97.625L492.065 98.2842C491.699 98.8701 491.333 99.4561 490.966 100.042C489.941 101.727 488.879 103.338 487.78 104.876C484.704 109.563 481.701 113.775 478.771 117.51C469.836 128.643 462.988 133.917 458.227 133.331C456.25 133.111 454.711 131.792 453.613 129.375C452.587 127.105 452.258 124.651 452.624 122.015C452.844 119.598 453.54 116.558 454.711 112.896L456.25 108.501L457.568 103.997L457.788 103.008C458.227 101.25 457.421 100.262 455.371 100.042C453.466 99.8223 451.708 100.262 450.097 101.36C448.779 100.994 447.424 101.031 446.032 101.47C444.494 101.983 443.542 102.825 443.176 103.997L442.187 106.854L441.198 109.93C440.466 112.273 439.843 114.361 439.331 116.192C438.012 121.172 437.316 125.494 437.243 129.156C437.023 138.824 441.162 145.196 449.658 148.272C453.686 149.737 459.179 148.711 466.137 145.196C468.701 143.951 471.081 142.522 473.278 140.911C475.256 139.52 476.464 138.458 476.904 137.725C476.391 140.435 475.073 145.635 472.949 153.326L471.74 157.72L471.081 159.808L470.532 161.785C469.726 164.642 469.177 166.619 468.884 167.718C468.664 168.816 468.994 169.622 469.873 170.135C470.678 170.647 471.74 170.867 473.059 170.794L472.509 174.419C472.29 176.47 473.461 177.496 476.025 177.496C478.588 177.569 480.419 176.763 481.518 175.079C481.738 176.836 481.994 178.338 482.287 179.583C482.8 181.707 484.411 182.439 487.121 181.78C489.758 181.048 491.296 179.766 491.735 177.935C498.62 150.25 503.674 125.823 506.896 104.656C507.043 103.484 506.677 102.642 505.798 102.129C504.992 101.617 503.894 101.47 502.502 101.69ZM584.68 105.206L585.119 104.766L585.449 104.437C587.353 102.825 586.877 102.02 584.021 102.02C581.237 101.946 579.26 102.349 578.088 103.228L577.429 103.777L576.77 104.217C574.792 105.462 572.814 106.78 570.837 108.172C557.727 117.034 546.704 125.75 537.768 134.319C539.16 129.632 540.332 125.896 541.284 123.113C541.43 122.82 541.357 122.527 541.064 122.234C542.016 118.572 542.749 115.386 543.261 112.676C543.481 111.724 542.822 111.211 541.284 111.138L541.943 108.611L542.712 106.084C543.078 104.986 542.016 104.546 539.526 104.766C537.036 104.986 535.205 105.645 534.033 106.744C533.667 105.645 532.019 105.462 529.089 106.194C526.159 106.927 524.731 107.989 524.804 109.38V113.116C522.753 113.848 521.655 114.69 521.508 115.643C521.142 118.133 520.336 122.381 519.091 128.387C518.579 130.804 517.993 133.66 517.333 136.956L516.345 141.57L515.356 146.075C511.987 162.042 510.119 171.453 509.753 174.31C509.606 175.481 510.375 175.994 512.06 175.848L511.95 177.166L511.73 178.484C511.511 180.022 512.829 180.572 515.686 180.132C518.542 179.766 520.263 178.887 520.849 177.496C523.632 176.91 525.207 176.031 525.573 174.859C526.892 171.05 528.356 166.326 529.968 160.687C531.213 158.196 532.312 155.376 533.264 152.227C534.289 151.055 535.424 149.92 536.669 148.821L537.219 148.711C549.963 164.458 560.473 175.701 568.75 182.439C569.409 182.952 570.471 183.099 571.936 182.879C573.327 182.732 574.609 182.33 575.781 181.67L576.22 182.22C577.099 183.392 579.003 183.428 581.933 182.33C584.936 181.231 585.925 179.986 584.899 178.594C582.922 175.738 580.505 172.515 577.648 168.926L573.803 164.202L569.848 159.478C563.256 151.495 558.349 145.049 555.126 140.142C568.603 132.598 579.26 123.589 587.097 113.116C588.049 111.871 588.122 110.735 587.316 109.71C588.269 108.538 587.902 107.806 586.218 107.513C585.485 107.439 584.68 107.403 583.801 107.403C582.995 107.476 582.336 107.586 581.823 107.732L584.68 105.206ZM603.466 165.85C602.807 163.067 602.954 159.148 603.906 154.095C605.957 143.621 611.047 132.085 619.177 119.488L619.616 118.829L620.056 118.169C620.495 117.51 620.935 116.888 621.374 116.302C622.546 114.617 623.681 113.152 624.78 111.907C625 112.42 625.183 113.006 625.329 113.665C626.721 118.792 626.501 124.651 624.67 131.243C620.715 141.351 615.075 151.165 607.751 160.687L607.421 161.126L606.982 161.785C606.616 162.298 606.286 162.737 605.993 163.104C605.041 164.202 604.199 165.118 603.466 165.85ZM615.771 171.343C613.72 172.955 611.706 173.797 609.729 173.87C613.464 172.039 616.65 169.805 619.287 167.168C622.949 163.433 626.574 159.112 630.163 154.205C628.405 157.061 626.501 159.991 624.45 162.994L624.011 163.763C621.228 166.766 618.481 169.292 615.771 171.343ZM658.508 118.938C658.728 118.279 658.325 117.84 657.299 117.62C657.519 116.229 657.702 114.983 657.849 113.885C657.995 112.347 657.226 111.504 655.542 111.358C654.077 111.138 652.502 111.468 650.817 112.347C649.353 98.8701 642.504 93.6699 630.273 96.7461C619.506 99.3828 610.424 106.011 603.027 116.631C597.021 125.127 592.443 135.674 589.294 148.272L588.964 149.48L588.745 150.579L588.635 151.128C587.756 154.717 587.536 158.453 587.976 162.334C588.415 166.583 589.587 169.805 591.491 172.002C592.956 174.493 595.007 175.958 597.644 176.397C598.669 177.129 599.731 177.715 600.83 178.155C606.689 182.256 612.768 182.293 619.067 178.265C623.022 175.701 626.867 172.186 630.603 167.718C632.36 166.106 634.008 164.385 635.546 162.554C635.839 166.143 636.389 169.476 637.194 172.552C637.341 173.211 637.78 173.724 638.513 174.09L639.392 178.594C639.611 179.473 640.307 180.059 641.479 180.352L641.699 180.792C642.285 181.963 643.896 182.293 646.533 181.78C649.169 181.194 650.634 180.279 650.927 179.034C652.539 178.887 653.967 178.448 655.212 177.715C656.677 176.983 657.299 176.177 657.08 175.298C651.733 154.058 652.209 135.271 658.508 118.938Z" fill="white"/>
</svg>
